<?xml version="1.0" standalone="no"?>
<!DOCTYPE svg PUBLIC "-//W3C//DTD SVG 20010904//EN"
 "http://www.w3.org/TR/2001/REC-SVG-20010904/DTD/svg10.dtd">
<svg version="1.0" xmlns="http://www.w3.org/2000/svg"
 width="180.000000pt" height="180.000000pt" viewBox="0 0 180.000000 180.000000"
 preserveAspectRatio="xMidYMid meet">
<metadata>
Created by potrace 1.14, written by Peter Selinger 2001-2017
</metadata>
<g transform="translate(0.000000,180.000000) scale(0.100000,-0.100000)"
fill="#000000" stroke="none">
<path d="M848 1795 c-2 -2 -29 -5 -62 -9 -360 -38 -673 -326 -749 -691 -19
-90 -19 -250 0 -340 41 -196 172 -407 313 -504 21 -15 7 4 -37 47 -375 377
-334 966 88 1280 67 50 200 114 289 138 70 19 288 26 365 11 315 -60 575 -304
656 -614 37 -142 30 -342 -16 -478 -24 -69 -71 -160 -113 -220 -43 -62 -161
-178 -213 -211 -21 -13 -39 -27 -39 -29 0 -18 149 96 212 162 245 258 304 653
146 968 -147 290 -432 474 -760 488 -43 2 -79 3 -80 2z"/>
<path d="M497 1454 c-4 -4 -7 -72 -7 -151 0 -122 2 -145 16 -150 26 -10 31 12
29 128 -1 75 2 108 9 106 6 -3 87 -57 180 -121 93 -64 175 -116 181 -116 6 0
37 18 68 40 110 76 295 200 300 200 3 0 5 -50 4 -111 -2 -118 2 -136 27 -126
14 5 16 28 16 157 0 129 -2 150 -16 150 -8 0 -100 -58 -204 -130 -104 -71
-192 -130 -196 -130 -3 0 -88 57 -188 127 -182 127 -205 140 -219 127z"/>
<path d="M255 1022 c-6 -4 -10 -47 -10 -97 1 -72 4 -90 15 -90 11 0 16 16 18
64 l3 63 29 -46 c33 -52 47 -52 74 -1 11 19 23 35 27 35 4 0 8 -21 7 -47 0
-70 1 -73 17 -73 12 0 15 17 15 94 0 52 -4 97 -9 101 -12 7 -43 -25 -67 -70
-10 -19 -21 -35 -24 -35 -3 0 -19 20 -34 45 -34 53 -48 66 -61 57z"/>
<path d="M556 1021 c-11 -18 -76 -173 -76 -182 0 -18 29 -9 35 11 7 21 9 22
50 22 54 0 63 -3 68 -22 3 -11 13 -20 22 -20 10 0 15 5 12 13 -56 145 -94 206
-111 178z m22 -119 c-16 -2 -32 -1 -34 1 -3 2 3 24 12 47 l17 43 18 -44 17
-44 -30 -3z"/>
<path d="M722 1023 c-12 -2 -27 -13 -33 -24 -17 -33 -1 -59 52 -81 35 -15 49
-26 47 -37 -3 -12 -15 -16 -56 -15 -54 2 -66 -8 -33 -26 27 -14 84 -13 103 3
28 22 29 47 3 73 -13 13 -30 24 -37 24 -8 0 -24 7 -36 16 -34 24 -11 46 39 39
45 -7 53 10 13 25 -14 6 -28 9 -32 9 -4 -1 -17 -4 -30 -6z"/>
<path d="M873 1017 c-25 -11 -35 -48 -18 -71 7 -9 30 -22 51 -30 28 -9 40 -19
42 -36 4 -22 2 -23 -52 -17 -31 3 -56 4 -56 2 0 -17 38 -35 75 -35 36 0 48 5
61 25 23 36 10 60 -46 84 -73 32 -64 67 15 54 30 -5 34 -3 29 11 -3 9 -11 17
-18 18 -39 5 -64 4 -83 -5z"/>
<path d="M996 1013 c-5 -13 -3 -15 37 -17 21 -1 22 -6 25 -83 2 -64 6 -83 17
-83 11 0 15 19 17 83 l3 82 27 -1 c15 -1 29 5 32 12 6 16 10 16 -81 18 -52 1
-74 -2 -77 -11z"/>
<path d="M1186 1023 c-3 -4 -6 -49 -6 -100 0 -84 2 -94 17 -91 15 3 18 16 18
95 0 62 -3 94 -11 97 -7 3 -15 2 -18 -1z"/>
<path d="M1313 1019 c-65 -19 -84 -110 -34 -160 24 -23 38 -29 73 -29 54 0 64
8 63 45 -3 60 -5 64 -19 59 -9 -4 -13 -17 -12 -40 3 -32 2 -34 -30 -34 -91 0
-99 120 -10 136 15 2 35 0 46 -6 17 -9 20 -8 20 10 0 11 -6 20 -12 20 -7 0
-22 2 -33 4 -11 3 -35 0 -52 -5z"/>
<path d="M1455 1020 c-2 -3 -3 -47 -3 -98 l1 -92 69 0 c54 0 68 3 68 15 0 11
-13 15 -54 15 -50 0 -54 2 -51 20 6 33 12 36 54 34 29 -1 41 3 41 12 0 13 -21
18 -66 15 -16 -2 -23 5 -26 23 -6 28 -6 28 54 30 23 0 43 6 46 14 4 14 5 14
-71 16 -32 1 -60 -1 -62 -4z"/>
<path d="M436 698 l1 -53 44 -1 c24 -1 47 3 50 8 11 17 57 18 64 1 3 -9 8 -13
11 -10 9 9 -26 95 -40 100 -8 3 -19 -14 -30 -43 -16 -46 -18 -47 -49 -41 -29
6 -32 10 -32 46 0 21 -4 40 -10 42 -6 2 -10 -19 -9 -49z m144 -10 c0 -5 -7 -8
-15 -8 -15 0 -20 21 -8 33 7 7 23 -11 23 -25z"/>
<path d="M630 693 c0 -53 0 -54 28 -49 15 2 33 5 39 5 14 1 13 74 -1 88 -4 4
-21 8 -37 9 -29 0 -29 -1 -29 -53z m58 25 c-6 -17 -38 -19 -38 -2 0 8 9 14 21
14 11 0 19 -5 17 -12z m2 -43 c0 -8 -9 -15 -19 -15 -10 0 -21 7 -25 15 -4 11
1 15 19 15 16 0 25 -6 25 -15z"/>
<path d="M733 724 c-15 -23 -15 -29 -2 -52 17 -31 56 -38 81 -16 23 22 23 56
0 77 -27 25 -59 21 -79 -9z m72 -29 c0 -25 -4 -31 -26 -33 -29 -3 -44 18 -33
50 4 14 13 18 32 16 23 -2 27 -8 27 -33z"/>
<path d="M850 694 c0 -37 4 -53 11 -49 6 4 8 13 5 21 -9 22 21 16 38 -8 9 -12
19 -19 22 -15 4 4 1 13 -5 21 -10 11 -9 19 1 35 16 26 3 40 -40 46 l-32 4 0
-55z m58 19 c2 -8 -6 -13 -22 -13 -19 0 -24 4 -19 15 6 18 34 16 41 -2z"/>
<path d="M983 738 c-11 -13 -43 -85 -43 -95 0 -3 7 1 16 8 24 20 47 20 61 2
21 -28 25 -8 7 38 -21 55 -28 63 -41 47z m20 -38 c4 -15 0 -20 -14 -20 -17 0
-18 3 -9 20 6 11 12 20 14 20 2 0 6 -9 9 -20z"/>
<path d="M1034 738 c-3 -4 4 -8 14 -8 15 0 19 -7 20 -32 0 -60 1 -64 11 -50 4
8 6 29 4 48 -3 29 0 34 17 34 12 0 18 4 15 10 -7 11 -74 10 -81 -2z"/>
<path d="M1134 725 c-21 -33 -6 -72 31 -81 54 -13 88 59 43 90 -32 23 -55 20
-74 -9z m71 -30 c0 -25 -4 -31 -26 -33 -29 -3 -44 18 -33 50 4 14 13 18 32 16
23 -2 27 -8 27 -33z"/>
<path d="M1248 739 c-7 -20 4 -99 13 -93 5 3 7 9 4 14 -13 21 20 21 37 0 10
-12 21 -20 25 -17 3 4 0 13 -6 21 -10 11 -9 19 1 35 9 14 9 24 2 31 -14 14
-72 21 -76 9z m60 -27 c3 -9 -3 -13 -19 -10 -12 1 -24 9 -27 16 -3 9 3 13 19
10 12 -1 24 -9 27 -16z"/>
<path d="M1406 734 c-9 -8 -16 -21 -16 -27 -1 -7 -10 -1 -21 12 -25 31 -34 22
-15 -15 8 -16 18 -38 22 -49 6 -17 8 -16 14 10 3 17 15 43 24 58 20 30 16 36
-8 11z"/>
<path d="M542 597 c-12 -6 -22 -16 -22 -23 0 -7 -3 -19 -6 -27 -8 -21 23 -47
57 -47 18 0 28 4 24 10 -4 6 -10 8 -15 5 -16 -10 -50 15 -50 35 0 20 34 45 50
35 5 -3 11 -1 14 4 9 14 -27 19 -52 8z"/>
<path d="M622 588 c-16 -16 -15 -63 2 -77 21 -18 66 -9 82 14 11 16 11 25 1
45 -14 28 -64 39 -85 18z m68 -17 c5 -11 7 -26 4 -34 -8 -21 -42 -28 -58 -11
-17 17 -10 51 13 57 28 8 30 7 41 -12z"/>
<path d="M732 578 c2 -13 15 -29 32 -37 22 -10 25 -15 15 -22 -8 -5 -22 -6
-31 -3 -10 3 -18 0 -18 -6 0 -7 13 -10 33 -8 24 2 32 8 32 23 0 11 -10 24 -22
30 -33 14 -30 37 3 29 19 -5 25 -4 20 5 -4 6 -21 11 -37 11 -26 0 -30 -3 -27
-22z"/>
<path d="M820 550 c0 -30 4 -50 11 -50 7 0 10 14 7 35 l-4 35 22 -27 21 -27
16 30 16 29 1 -37 c0 -21 5 -38 10 -38 6 0 10 23 10 50 0 55 -11 63 -36 25 -9
-14 -20 -25 -24 -25 -4 0 -12 11 -18 25 -18 40 -32 29 -32 -25z"/>
<path d="M950 550 l0 -50 43 0 c34 1 39 3 24 11 -10 6 -25 8 -33 5 -11 -4 -14
-1 -12 12 2 9 11 16 20 14 9 -1 19 2 23 8 4 6 -4 10 -19 10 -14 0 -26 4 -26 9
0 12 29 23 41 15 5 -3 9 0 9 5 0 6 -16 11 -35 11 l-35 0 0 -50z"/>
<path d="M1034 593 c4 -5 13 -8 19 -8 7 0 12 -15 12 -37 0 -37 14 -66 16 -32
1 10 2 30 2 44 1 14 7 25 14 25 6 0 15 3 19 8 4 4 -14 7 -41 7 -27 0 -45 -3
-41 -7z"/>
<path d="M1130 550 c0 -27 5 -50 10 -50 6 0 10 23 10 50 0 28 -4 50 -10 50 -5
0 -10 -22 -10 -50z"/>
<path d="M1176 579 c-14 -21 -12 -42 7 -66 12 -16 67 -17 67 -2 0 6 -8 8 -17
5 -33 -10 -58 24 -42 56 6 11 17 15 34 12 14 -2 25 0 25 6 0 19 -58 11 -74
-11z"/>
<path d="M1266 591 c-10 -16 6 -41 30 -47 13 -3 24 -10 24 -14 0 -12 -28 -20
-47 -13 -11 4 -14 3 -9 -5 11 -18 63 -15 70 4 9 22 9 22 -24 39 -32 17 -32 40
1 30 11 -4 19 -2 19 4 0 13 -57 15 -64 2z"/>
<path d="M1207 344 c-30 -40 -75 -57 -167 -61 -101 -5 -164 -31 -197 -82 -59
-88 9 -196 122 -195 150 1 259 119 268 289 2 36 1 67 -2 69 -3 2 -14 -7 -24
-20z m-72 -221 c-46 -69 -127 -105 -194 -84 -21 6 -44 18 -51 25 -10 13 -6 13
26 5 20 -6 53 -8 73 -4 44 7 115 41 137 66 25 27 29 23 9 -8z"/>
<path d="M505 301 c7 -65 26 -112 62 -159 66 -87 209 -88 228 -2 15 71 -31
114 -138 129 -73 10 -118 30 -142 63 -16 22 -17 21 -10 -31z m214 -187 c44 5
45 5 21 -9 -44 -25 -105 -12 -141 31 -11 13 -5 12 30 -6 35 -17 55 -21 90 -16z"/>
</g>
</svg>
